<svg xmlns="http://www.w3.org/2000/svg" version="1.1" xmlns:xlink="http://www.w3.org/1999/xlink" xmlns:svgjs="http://svgjs.dev/svgjs" width="1000" height="1000" viewBox="0 0 1000 1000"><g transform="matrix(1,0,0,1,0,0)"><svg viewBox="0 0 280 280" data-background-color="#ffffff" preserveAspectRatio="xMidYMid meet" height="1000" width="1000" xmlns="http://www.w3.org/2000/svg" xmlns:xlink="http://www.w3.org/1999/xlink"><g id="tight-bounds" transform="matrix(1,0,0,1,0,0)"><svg viewBox="0 0 280 280" height="280" width="280"><g><svg viewBox="0 0 280 280" height="280" width="280"><g><svg viewBox="0 0 280 280" height="280" width="280"><g id="textblocktransform"><svg viewBox="0 0 280 280" height="280" width="280" id="textblock"><g><svg viewBox="0 0 280 280" height="280" width="280"><g transform="matrix(1,0,0,1,90.50252531694167,91.75827291594258)"><svg viewBox="0 0 98.99494936611666 96.48345416811483" height="96.48345416811483" width="98.99494936611666"><g><svg xmlns="http://www.w3.org/2000/svg" xmlns:xlink="http://www.w3.org/1999/xlink" version="1.1" x="0" y="0" viewBox="0.0007498264312744141 0.9997498989105225 99.83075714111328 97.29805755615234" enable-background="new 0 0 100 100" xml:space="preserve" height="96.48345416811483" width="98.99494936611666" class="icon-o-0" data-fill-palette-color="accent" id="o-0"><path d="M51.227 33.507c5.355-0.875 10.04-1.294 13.128-1.493l-29.499-29.5c-2.021-2.019-5.292-2.019-7.315 0-2.014 2.021-2.014 5.292 0 7.313L51.227 33.507z" fill="#2ecc40" data-fill-palette-color="accent"></path><path d="M33.381 37.991c3.752-1.358 7.628-2.421 11.379-3.245l-21.07-21.068c-2.019-2.021-5.288-2.021-7.311 0-2.019 2.019-2.019 5.292 0 7.311L33.381 37.991z" fill="#2ecc40" data-fill-palette-color="accent"></path><path d="M74.174 46.865c0.207 12.649-2.255 35.305-13.378 46.429-2.131 2.129-4.835 3.333-7.613 3.616 12.355 3.496 26.188 0.388 35.916-9.336 14.31-14.312 14.31-37.513 0-51.825L73.824 20.477c-1.051-1.051-2.756-1.051-3.807 0l-0.005 0.004c-3.07 3.065-1.719 9.084 1.656 12.461h0.004l10.116 10.116c1.051 1.051 1.051 2.758 0 3.81" fill="#2ecc40" data-fill-palette-color="accent"></path><path d="M13.746 62.815c-2.959-6.456-2.564-8.872 0.841-13.777l-5.759-5.763c-2.021-2.019-5.294-2.019-7.313 0s-2.019 5.294 0 7.313l11.33 11.325" fill="#2ecc40" data-fill-palette-color="accent"></path><path d="M18.164 45.014c2.668-2.175 5.758-4.008 9.064-5.559L11.812 24.037c-2.019-2.019-5.292-2.019-7.311 0-2.023 2.019-2.023 5.294 0 7.313L18.164 45.014z" fill="#2ecc40" data-fill-palette-color="accent"></path><path d="M58.003 77.193" fill="#2ecc40" data-fill-palette-color="accent"></path><path d="M66.355 38.941c0 0-30.914-3.253-46.425 12.257-4.916 4.917-4.916 12.885 0 17.799l1.599 1.599 35.452-25.877L31.906 69.796 10.318 91.381c-1.378 1.379-1.369 3.618 0.02 5.003 1.385 1.39 3.624 1.398 5.003 0.02l15.992-15.99 6.392 6.381c4.914 4.916 12.883 4.916 17.799 0C71.037 71.283 66.355 38.941 66.355 38.941z" fill="#2ecc40" data-fill-palette-color="accent"></path></svg></g></svg></g><g><path d="M21.71 88.243v0l1.358-3.209c0.113-0.325 0.185-0.573 0.216-0.745v0l2.505 2.72-0.108 0.312c-0.154 0.442-0.496 1.026-1.026 1.751-0.532 0.733-0.859 1.274-0.981 1.625v0c-0.333 0.955 0.021 1.927 1.061 2.916v0c1.112 0.489 2.231 0.956 3.358 1.399v0c0.648-1.129 1.095-2.044 1.339-2.746v0l0.109-0.312c0.348-1 0.406-1.876 0.172-2.628-0.236-0.745-0.878-1.442-1.926-2.091v0l1.628-4.142c1.885 1.05 3.447 2.119 4.686 3.205v0l-5.974 17.15c-3.307-0.627-6.51-1.481-9.609-2.56-3.092-1.077-5.734-2.183-7.925-3.318v0l6.521-18.719c2.367 1.298 4.007 2.288 4.92 2.971v0c-0.412 1.393-0.805 2.666-1.177 3.818v0c-0.474-0.376-0.941-0.645-1.402-0.805v0c-1.117-0.389-1.968 0.254-2.552 1.93v0c-0.22 0.63-0.395 1.352-0.525 2.167v0c2.036 1.285 3.844 2.359 5.423 3.222v0c-0.54-1.23-0.571-2.534-0.091-3.911z" fill="#2ecc40" data-fill-palette-color="primary"></path><path d="M30.848 60.03v0c-0.579 0.661-1.079 1.331-1.498 2.01-0.424 0.684-0.82 1.58-1.19 2.686v0c1.126 1.134 2.318 2.09 3.576 2.869v0c3.252 2.013 6.643 2.11 10.173 0.289v0c-0.08-2.72-0.597-5.446-1.55-8.18v0c0.882 0.457 2.196 1.197 3.94 2.221v0c0.257 2.303 0.231 4.476-0.078 6.517-0.309 2.042-1.21 4.267-2.701 6.677v0l-0.451 0.729c-1.988 1.382-4.111 2.119-6.368 2.21-2.261 0.097-4.274-0.401-6.041-1.494v0c-2.346-1.452-3.743-3.652-4.191-6.6-0.455-2.951 0.453-6.261 2.723-9.928v0c1.271-2.053 2.865-4.04 4.782-5.96v0c1.116 1.152 2.103 2.341 2.96 3.569v0c-0.69 1.402-1.469 2.804-2.337 4.208v0c-0.458-0.567-1.041-1.174-1.748-1.823z" fill="#2ecc40" data-fill-palette-color="primary"></path><path d="M51.853 59.15v0c-3.545-0.36-6.387-1.566-8.526-3.618-2.134-2.048-3.086-4.668-2.856-7.86 0.231-3.201 1.677-6.189 4.34-8.964v0c1.419-1.479 3.052-2.734 4.899-3.765v0c2.847 0.272 5.196 1.296 7.048 3.073v0c2.328 2.234 3.441 5.132 3.34 8.696-0.102 3.564-1.448 6.695-4.039 9.396v0c-1.11 1.157-2.512 2.171-4.206 3.042zM44.191 44.005v0c0.467 1.649 1.423 3.167 2.867 4.553 1.44 1.381 3.072 2.338 4.898 2.869 1.826 0.541 3.536 0.518 5.129-0.07v0c-0.267-1.868-1.103-3.475-2.508-4.823-1.405-1.348-3.041-2.26-4.91-2.737-1.863-0.472-3.689-0.403-5.476 0.208z" fill="#2ecc40" data-fill-palette-color="primary"></path><path d="M79.164 17.692v0c2.674 4.029 5.125 8.574 7.353 13.634v0l-7.359 4.885c-1.283-2.641-2.8-5.395-4.554-8.26v0c-1.5 0.054-2.956 0.447-4.37 1.179v0c1.884 3.1 3.552 6.328 5.003 9.683v0l-6.989 4.64c-1.072-2.187-2.54-4.684-4.404-7.493-1.86-2.803-3.853-5.406-5.977-7.811v0l8.133-5.398c0.599 0.816 1.451 2.055 2.554 3.717v0c1.439-0.419 2.958-0.7 4.555-0.844v0c-1.271-1.914-2.508-3.624-3.713-5.127v0l8.013-5.319c0.801 1.12 1.386 1.958 1.755 2.514z" fill="#2ecc40" data-fill-palette-color="primary"></path><path d="M113.258 20.965v0l0.102 0.281-8.054 2.941c-0.562-1.238-1.258-2.532-2.089-3.884v0c-1.03 2.214-2.152 4.173-3.368 5.877v0l-8.093 2.956c-0.508-0.891-1.048-2.118-1.62-3.682-0.571-1.564-0.915-3.218-1.032-4.962v0c1.49-1.093 2.796-2.501 3.918-4.221 1.115-1.718 1.777-3.377 1.984-4.976v0c-1.026-0.783-2.014-1.432-2.964-1.949v0l11.544-4.216c4.123 4.192 7.348 9.47 9.672 15.835zM101.66 17.994v0c-1.302-1.78-2.797-3.438-4.487-4.975v0c0.076 3.597 0.554 6.85 1.434 9.759v0c1.373-1.556 2.39-3.151 3.053-4.784z" fill="#2ecc40" data-fill-palette-color="primary"></path><path d="M131.509 0.536l4.374-0.536c0.458 2.55 0.862 5.252 1.212 8.106 0.349 2.847 0.644 6.27 0.884 10.267v0l-3.523 0.432c-5.058-1.965-9.838-4.893-14.342-8.784v0c0.399 1.614 0.704 3.282 0.914 5.003 0.212 1.728 0.369 3.517 0.471 5.369v0l-4.301 0.527c0.123-3.071 0.027-5.887-0.287-8.448-0.313-2.554-0.684-4.563-1.113-6.028v0c-1.156-1.348-2.088-2.561-2.796-3.639v0l10.437-1.28c1.24 1.636 2.863 3.281 4.867 4.934 2.005 1.653 3.877 2.907 5.617 3.761v0c-0.438-3.571-1.242-6.799-2.414-9.684z" fill="#2ecc40" data-fill-palette-color="primary"></path><path d="M154.643 0.373v0c4.735 0.491 8.526 1.479 11.373 2.964v0c0.834 2.224 1.14 4.413 0.917 6.569v0c-0.287 2.771-1.481 5.078-3.582 6.921v0c-3.053 2.63-6.92 3.702-11.6 3.216v0c-1.622-0.168-3.799-0.581-6.531-1.238v0c-0.447-5.026-0.454-9.626-0.021-13.799v0c0.15-1.444 0.388-3.003 0.713-4.678v0c4.007-0.158 6.917-0.143 8.731 0.045zM155.465 3.249v0c-0.923 4.566-1.488 7.848-1.696 9.845-0.207 1.998-0.338 3.627-0.393 4.887v0c1.401-0.574 2.562-1.66 3.482-3.259 0.92-1.606 1.47-3.274 1.65-5.006 0.179-1.724 0.014-3.173-0.493-4.346-0.515-1.167-1.365-1.874-2.55-2.121z" fill="#2ecc40" data-fill-palette-color="primary"></path><path d="M188.722 11.757v0c-0.773-0.417-1.538-0.755-2.292-1.013-0.762-0.26-1.723-0.447-2.884-0.56v0c-0.855 1.351-1.521 2.726-1.999 4.125v0c-1.238 3.619-0.576 6.946 1.985 9.981v0c2.633-0.684 5.176-1.796 7.629-3.334v0c-0.249 0.962-0.678 2.407-1.287 4.336v0c-2.188 0.764-4.311 1.223-6.371 1.377-2.059 0.154-4.43-0.228-7.111-1.145v0l-0.81-0.277c-1.791-1.63-2.982-3.535-3.575-5.716-0.599-2.182-0.562-4.256 0.11-6.222v0c0.893-2.61 2.726-4.463 5.499-5.557 2.776-1.101 6.204-0.954 10.286 0.442v0c2.285 0.781 4.577 1.892 6.875 3.333v0c-0.874 1.344-1.814 2.571-2.818 3.682v0c-1.52-0.36-3.061-0.807-4.623-1.341v0c0.45-0.573 0.913-1.276 1.386-2.111z" fill="#2ecc40" data-fill-palette-color="primary"></path><path d="M216.197 31.339v0l-0.686 1.056c-2.238-0.113-4.776-0.681-7.614-1.703v0c1.519 1.584 3.123 2.886 4.814 3.906v0l0.671 0.405c0.129 2.408-0.41 4.992-1.617 7.751v0l-8.198-4.949c0.68-1.606 1.018-3.138 1.014-4.595 0.002-1.453-0.347-2.652-1.046-3.597v0c-0.235 0.349-0.677 1.062-1.328 2.139-0.651 1.078-1.36 2.393-2.129 3.946v0l-6.899-4.164c1.236-3.432 2.647-6.462 4.232-9.089 1.586-2.627 3.201-4.97 4.847-7.03v0l16.528 9.978c-0.798 2.427-1.661 4.409-2.589 5.946zM208.867 22.297v0c-1.373 1.702-2.667 3.412-3.881 5.131v0c1.263 0.53 2.463 0.691 3.6 0.485v0c0.453-1.655 0.546-3.527 0.281-5.616z" fill="#2ecc40" data-fill-palette-color="primary"></path><path d="M231.146 61.373v0l-0.209 0.214-6.142-5.984c0.872-1.043 1.737-2.231 2.596-3.566v0c-2.442 0.032-4.694-0.131-6.757-0.489v0l-6.171-6.013c0.583-0.844 1.455-1.863 2.617-3.055 1.162-1.192 2.503-2.219 4.024-3.08v0c1.631 0.869 3.465 1.436 5.503 1.702 2.032 0.261 3.813 0.138 5.344-0.369v0c0.261-1.263 0.418-2.435 0.472-3.516v0l8.802 8.577c-1.991 5.533-5.351 10.726-10.079 15.579zM228.797 49.633v0c1.04-1.945 1.887-4.011 2.539-6.199v0c-3.209 1.628-5.934 3.468-8.174 5.52v0c1.997 0.563 3.875 0.789 5.635 0.679z" fill="#2ecc40" data-fill-palette-color="primary"></path><path d="M248.634 69.659v0l1.753 3.059c0.178 0.27 0.322 0.471 0.434 0.604v0l-3.674 0.329-0.181-0.276c-0.257-0.391-0.517-1.018-0.782-1.882-0.254-0.862-0.483-1.448-0.687-1.759v0c-0.529-0.805-1.482-1.108-2.859-0.91v0c-1.24 0.668-2.2 1.225-2.878 1.671-0.684 0.45-1.402 0.955-2.153 1.515v0l-4.412-6.707c2.381-2.126 4.976-4.114 7.787-5.962 2.81-1.849 5.322-3.295 7.533-4.339v0l10.854 16.5c-2.47 1.09-4.245 1.784-5.324 2.083v0l-2.341-3.24c0.632-0.153 1.135-0.352 1.509-0.598v0c0.989-0.65 0.989-1.725 0.002-3.225v0c-0.435-0.661-0.887-1.236-1.357-1.725v0c-2.132 0.752-4.252 1.616-6.361 2.591v0c1.309 0.325 2.354 1.082 3.137 2.271z" fill="#2ecc40" data-fill-palette-color="primary"></path><path d="M265.212 92.998v0c-3.871 0.764-6.963 1.578-9.277 2.443-2.307 0.862-4.316 1.716-6.026 2.561v0l-2.822-7.549c3.379-2.159 7.182-4.028 11.41-5.608v0c0.715-0.267 1.797-0.646 3.244-1.135v0c-1.306-1.745-3.082-2.45-5.33-2.117v0l-1.066-3.501 6.487-1.004 8.609 23.033c-2.71 0.491-4.985 0.74-6.827 0.745v0l-1.095-3.578c0.401-0.047 0.785-0.139 1.153-0.277v0c0.902-0.337 1.469-0.865 1.699-1.582 0.231-0.718 0.178-1.528-0.159-2.431z" fill="#2ecc40" data-fill-palette-color="primary"></path><path d="M16.997 184.859v0l0.93 3.359c0.113 0.325 0.211 0.564 0.293 0.717v0l-3.652-0.574-0.109-0.312c-0.154-0.442-0.249-1.112-0.285-2.01-0.038-0.905-0.118-1.532-0.241-1.883v0c-0.333-0.955-1.213-1.497-2.642-1.625v0c-1.175 0.307-2.342 0.637-3.501 0.99v0c0.194 1.288 0.412 2.282 0.657 2.983v0l0.108 0.312c0.348 1 0.848 1.723 1.498 2.167 0.648 0.437 1.584 0.585 2.809 0.442v0l1.297 4.257c-2.13 0.348-4.017 0.481-5.663 0.399v0l-5.974-17.15c2.981-1.563 6.021-2.884 9.12-3.964 3.092-1.077 5.849-1.852 8.271-2.323v0l6.521 18.719c-2.661 0.453-4.562 0.697-5.702 0.729v0c-0.542-1.348-1.026-2.589-1.45-3.723v0c0.605 0.001 1.138-0.079 1.599-0.241v0c1.117-0.389 1.384-1.422 0.801-3.097v0c-0.22-0.63-0.531-1.305-0.935-2.024v0c-2.394 0.258-4.478 0.54-6.251 0.844v0c1.188 0.628 2.021 1.631 2.501 3.008z" fill="#2ecc40" data-fill-palette-color="primary"></path><path d="M35.414 208.604v0c-0.333-0.813-0.71-1.559-1.13-2.238-0.424-0.684-1.048-1.438-1.873-2.262v0c-1.517 0.502-2.905 1.143-4.163 1.921v0c-3.252 2.013-4.851 5.005-4.796 8.976v0c2.47 1.141 5.141 1.894 8.014 2.261v0c-0.802 0.586-2.051 1.431-3.745 2.536v0c-2.176-0.797-4.109-1.789-5.799-2.976-1.69-1.187-3.28-2.986-4.772-5.395v0l-0.451-0.728c-0.351-2.396-0.064-4.625 0.861-6.686 0.921-2.067 2.265-3.647 4.032-4.741v0c2.346-1.452 4.938-1.722 7.776-0.809 2.844 0.909 5.402 3.197 7.672 6.865v0c1.271 2.053 2.338 4.366 3.202 6.938v0c-1.528 0.485-3.033 0.838-4.514 1.059v0c-0.947-1.242-1.855-2.565-2.724-3.969v0c0.712-0.157 1.515-0.408 2.41-0.752z" fill="#2ecc40" data-fill-palette-color="primary"></path><path d="M32.452 230.925v0c0.506-3.527 1.829-6.316 3.968-8.369 2.134-2.048 4.791-2.891 7.971-2.528 3.189 0.363 6.115 1.931 8.777 4.706v0c1.419 1.479 2.606 3.163 3.559 5.051v0c-0.389 2.833-1.51 5.138-3.361 6.914v0c-2.328 2.234-5.27 3.226-8.827 2.978-3.556-0.249-6.63-1.723-9.221-4.423v0c-1.11-1.157-2.065-2.599-2.866-4.329zM47.901 223.895v0c-1.667 0.399-3.223 1.291-4.667 2.677-1.44 1.381-2.462 2.973-3.069 4.775-0.616 1.802-0.664 3.511-0.143 5.128v0c1.877-0.19 3.518-0.959 4.923-2.307 1.405-1.348 2.384-2.945 2.938-4.792 0.549-1.842 0.555-3.669 0.019-5.481z" fill="#2ecc40" data-fill-palette-color="primary"></path><path d="M81.232 250.653v0c-2.674 4.029-5.911 8.053-9.709 12.071v0l-7.36-4.884c1.936-2.208 3.884-4.676 5.844-7.404v0c-0.632-1.361-1.56-2.551-2.784-3.569v0c-2.125 2.941-4.452 5.731-6.98 8.371v0l-6.99-4.64c1.599-1.837 3.33-4.159 5.195-6.968 1.86-2.803 3.486-5.65 4.876-8.541v0l8.134 5.398c-0.519 0.869-1.33 2.135-2.434 3.797v0c0.945 1.164 1.794 2.454 2.546 3.87v0c1.271-1.914 2.365-3.719 3.283-5.412v0l8.013 5.318c-0.721 1.173-1.266 2.037-1.634 2.593z" fill="#2ecc40" data-fill-palette-color="primary"></path><path d="M104.162 275.402v0l-0.103 0.281-8.055-2.942c0.368-1.308 0.67-2.747 0.907-4.316v0c-2.214 1.03-4.335 1.804-6.364 2.323v0l-8.093-2.955c0.185-1.009 0.564-2.295 1.135-3.859 0.571-1.564 1.374-3.05 2.408-4.46v0c1.844 0.124 3.75-0.11 5.717-0.702 1.96-0.595 3.535-1.437 4.723-2.526v0c-0.28-1.259-0.616-2.393-1.01-3.401v0l11.544 4.216c0.451 5.863-0.485 11.976-2.809 18.341zM97.208 265.656v0c0.152-2.2 0.077-4.432-0.224-6.695v0c-2.26 2.8-3.991 5.595-5.194 8.385v0c2.052-0.305 3.858-0.869 5.418-1.69z" fill="#2ecc40" data-fill-palette-color="primary"></path><path d="M132.71 261.129l4.374 0.536c-0.171 2.585-0.432 5.304-0.782 8.159-0.349 2.847-0.89 6.239-1.622 10.176v0l-3.523-0.432c-4.433-3.129-8.365-7.124-11.796-11.987v0c-0.003 1.663-0.11 3.355-0.321 5.075-0.212 1.728-0.492 3.502-0.839 5.324v0l-4.302-0.527c0.861-2.951 1.448-5.707 1.762-8.267 0.313-2.554 0.438-4.593 0.376-6.119v0c-0.796-1.588-1.408-2.99-1.834-4.207v0l10.436 1.28c0.808 1.887 1.985 3.875 3.532 5.963 1.546 2.088 3.06 3.757 4.542 5.006v0c0.438-3.571 0.437-6.898-0.003-9.98z" fill="#2ecc40" data-fill-palette-color="primary"></path><path d="M153.448 259.568v0c4.735-0.491 8.648-0.302 11.74 0.566v0c1.273 2.005 2.021 4.085 2.245 6.241v0c0.287 2.771-0.407 5.274-2.085 7.509v0c-2.448 3.2-6.013 5.043-10.692 5.529v0c-1.622 0.168-3.837 0.211-6.647 0.129v0c-1.469-4.827-2.42-9.328-2.853-13.502v0c-0.15-1.444-0.237-3.018-0.262-4.724v0c3.889-0.977 6.74-1.56 8.554-1.748zM154.843 262.214v0c0.034 4.658 0.154 7.986 0.361 9.984 0.207 1.998 0.413 3.619 0.619 4.863v0c1.254-0.849 2.166-2.151 2.738-3.904 0.571-1.761 0.767-3.506 0.587-5.238-0.179-1.724-0.637-3.108-1.374-4.152-0.744-1.036-1.721-1.554-2.931-1.553z" fill="#2ecc40" data-fill-palette-color="primary"></path><path d="M186.985 254.622v0c-0.867 0.144-1.678 0.345-2.433 0.603-0.762 0.26-1.636 0.701-2.623 1.322v0c0.152 1.591 0.467 3.087 0.945 4.486v0c1.238 3.619 3.798 5.844 7.681 6.676v0c1.663-2.154 2.993-4.589 3.99-7.308v0c0.392 0.913 0.938 2.318 1.638 4.217v0c-1.262 1.944-2.66 3.607-4.194 4.989-1.534 1.382-3.642 2.532-6.323 3.449v0l-0.811 0.277c-2.414-0.192-4.523-0.969-6.325-2.33-1.81-1.359-3.051-3.021-3.723-4.986v0c-0.893-2.61-0.578-5.197 0.945-7.761 1.52-2.57 4.321-4.553 8.402-5.948v0c2.285-0.781 4.777-1.306 7.477-1.576v0c0.132 1.598 0.141 3.144 0.026 4.637v0c-1.422 0.646-2.914 1.236-4.476 1.771v0c0.005-0.729-0.06-1.568-0.196-2.518z" fill="#2ecc40" data-fill-palette-color="primary"></path><path d="M217.742 242.68v0l0.615 1.099c-1.143 1.927-2.827 3.909-5.054 5.944v0c2.109-0.606 4.009-1.419 5.698-2.44v0l0.672-0.405c2.191 1.008 4.226 2.688 6.105 5.041v0l-8.198 4.949c-1.104-1.35-2.302-2.363-3.594-3.038-1.285-0.678-2.509-0.928-3.67-0.749v0c0.199 0.37 0.624 1.094 1.274 2.171 0.651 1.078 1.484 2.318 2.5 3.722v0l-6.899 4.165c-2.461-2.693-4.485-5.352-6.07-7.979-1.586-2.627-2.907-5.148-3.963-7.563v0l16.528-9.978c1.776 1.837 3.128 3.524 4.056 5.061zM206.326 244.955v0c0.867 2.008 1.777 3.949 2.732 5.823v0c1.057-0.871 1.759-1.858 2.107-2.959v0c-1.254-1.172-2.867-2.127-4.839-2.864z" fill="#2ecc40" data-fill-palette-color="primary"></path><path d="M249.65 229.079v0l0.209 0.214-6.142 5.984c-1.02-0.899-2.185-1.794-3.497-2.687v0c-0.032 2.442-0.253 4.689-0.664 6.741v0l-6.171 6.013c-0.829-0.604-1.824-1.503-2.986-2.694-1.162-1.192-2.154-2.56-2.975-4.103v0c0.911-1.608 1.526-3.427 1.844-5.457 0.313-2.025 0.237-3.808-0.23-5.351v0c-1.256-0.294-2.424-0.481-3.502-0.564v0l8.802-8.577c5.479 2.134 10.583 5.627 15.312 10.481zM237.853 231.122v0c-1.917-1.09-3.961-1.99-6.131-2.699v0c1.544 3.25 3.313 6.022 5.307 8.314v0c0.614-1.982 0.889-3.853 0.824-5.615z" fill="#2ecc40" data-fill-palette-color="primary"></path><path d="M253.734 205.156v0l2.115-2.82c0.178-0.27 0.305-0.483 0.382-0.638v0l1.758 3.243-0.182 0.276c-0.257 0.391-0.73 0.878-1.419 1.463-0.691 0.575-1.139 1.017-1.343 1.327v0c-0.529 0.805-0.431 1.8 0.296 2.986v0c1.104 0.875 1.996 1.535 2.674 1.982 0.684 0.45 1.432 0.909 2.244 1.377v0l-4.413 6.707c-2.895-1.345-5.748-2.941-8.558-4.79-2.81-1.849-5.132-3.582-6.966-5.201v0l10.854-16.5c1.978 1.837 3.318 3.192 4.021 4.065v0l-2.049 3.433c-0.391-0.52-0.773-0.903-1.146-1.149v0c-0.989-0.65-1.976-0.225-2.963 1.274v0c-0.435 0.661-0.784 1.304-1.047 1.93v0c1.535 1.66 3.167 3.265 4.898 4.815v0c-0.22-1.33 0.061-2.59 0.844-3.78z" fill="#2ecc40" data-fill-palette-color="primary"></path><path d="M260.472 176.69v0c3.423 1.962 6.292 3.376 8.605 4.241 2.307 0.862 4.383 1.535 6.229 2.02v0l-2.821 7.549c-3.967-0.587-8.064-1.67-12.291-3.25v0c-0.715-0.267-1.78-0.691-3.194-1.271v0c-0.159 2.173 0.72 3.871 2.635 5.094v0l-1.491 3.342-5.556-3.497 8.609-23.034c2.368 1.406 4.249 2.711 5.642 3.915v0l-1.521 3.42c-0.334-0.227-0.684-0.41-1.051-0.547v0c-0.902-0.337-1.676-0.311-2.321 0.08-0.645 0.39-1.137 1.037-1.474 1.938z" fill="#2ecc40" data-fill-palette-color="primary"></path><path d="M2.659 135.73c0-4.082 3.309-7.391 7.39-7.39 4.082 0 7.391 3.309 7.391 7.39 0 4.082-3.309 7.391-7.391 7.391-4.082 0-7.391-3.309-7.39-7.391z" fill="#2ecc40" data-fill-palette-color="primary"></path><path d="M262.697 135.73c0-4.082 3.309-7.391 7.39-7.39 4.082 0 7.391 3.309 7.391 7.39 0 4.082-3.309 7.391-7.391 7.391-4.082 0-7.391-3.309-7.39-7.391z" fill="#2ecc40" data-fill-palette-color="primary"></path></g></svg></g></svg></g></svg></g><g></g></svg></g><defs></defs></svg><rect width="280" height="280" fill="none" stroke="none" visibility="hidden"></rect></g></svg></g></svg>