<svg viewBox="0 0 640 400" data-background-color="#ffffff" preserveAspectRatio="xMidYMid meet" height="400" width="640" xmlns="http://www.w3.org/2000/svg" xmlns:xlink="http://www.w3.org/1999/xlink"><rect width="640" height="400" x="0" y="0" opacity="1" fill="#ffffff" data-fill-palette-color="background" id="background"></rect><g id="tight-bounds" transform="matrix(1,0,0,1,160,20)"><svg viewBox="0 0 320 360" height="360" width="320"><g><svg></svg></g><g><svg viewBox="0 0 320 360" height="360" width="320"><g><path xmlns="http://www.w3.org/2000/svg" d="M294.684 112.125c-8.775-10.699-25.381-16.201-43-22.006-7.56-2.498-15.357-5.097-22.985-8.235-7.695-3.173-15.256-7.257-22.613-11.172-14.952-8.033-30.41-16.336-46.105-16.336-15.661 0-31.119 8.303-46.071 16.336-7.358 3.949-14.952 8.033-22.648 11.205-7.594 3.139-15.425 5.704-22.985 8.236-17.618 5.839-34.224 11.341-42.999 22.006-11.712 14.277-11.442 35.439-11.172 57.817 0.034 3.375 0.068 6.717 0.067 10.024 0 3.308-0.034 6.649-0.101 10.024-0.27 22.411-0.54 43.54 11.172 57.851 8.775 10.666 25.381 16.167 42.966 22.006 7.56 2.498 15.357 5.097 23.019 8.235 7.695 3.173 15.256 7.223 22.579 11.172 14.986 8.067 30.444 16.37 46.105 16.37 15.695 0 31.153-8.303 46.105-16.336 7.358-3.949 14.918-8.033 22.614-11.172 7.594-3.139 15.357-5.704 22.884-8.202 17.72-5.873 34.326-11.374 43.101-22.039 11.712-14.277 11.442-35.439 11.171-57.817-0.034-3.409-0.101-6.75-0.101-10.058 0-3.308 0.034-6.649 0.101-9.991 0.371-22.479 0.641-43.641-11.104-57.918zM305.552 103.215c-15.728-19.171-45.801-23.727-71.486-34.326-22.985-9.45-46.375-28.588-74.051-28.587-27.676 0-51.066 19.137-74.052 28.587-25.719 10.598-55.758 15.155-71.486 34.326-17.078 20.791-14.311 50.121-14.311 76.785 0 26.63-2.768 55.994 14.277 76.785 15.728 19.171 45.801 23.727 71.487 34.326 22.985 9.484 46.375 28.588 74.051 28.587 27.676 0 51.066-19.103 74.051-28.587 25.719-10.598 55.758-15.155 71.486-34.326 17.045-20.791 14.277-50.121 14.277-76.785 0.068-26.664 2.835-55.994-14.243-76.785zM309.872 189.923c0.304 23.221 0.574 45.059-12.083 60.483-9.518 11.577-26.664 17.281-44.822 23.289-7.56 2.498-15.29 5.063-22.715 8.134-7.493 3.071-14.952 7.088-22.175 10.969-15.458 8.303-31.355 16.842-48.062 16.842-16.707 0-32.604-8.539-47.995-16.808-7.257-3.915-14.75-7.932-22.243-11.003-7.527-3.105-15.256-5.67-22.748-8.134-18.192-6.008-35.338-11.712-44.823-23.289-12.623-15.391-12.353-37.262-12.083-60.415 0.034-3.375 0.101-6.683 0.101-9.991 0-3.308-0.034-6.615-0.067-9.991-0.304-23.154-0.574-45.025 12.083-60.415 9.518-11.577 26.664-17.247 44.822-23.289 7.527-2.498 15.256-5.063 22.749-8.134 7.493-3.105 14.986-7.122 22.242-11.003 15.391-8.269 31.322-16.842 47.995-16.842 16.673 0 32.604 8.539 47.995 16.808 7.257 3.915 14.75 7.932 22.243 11.003 7.493 3.105 15.256 5.637 22.715 8.134 18.158 6.008 35.338 11.712 44.822 23.289 12.657 15.425 12.387 37.262 12.083 60.416-0.034 3.409-0.101 6.717-0.101 9.99 0 3.308 0.034 6.615 0.067 9.957z" fill="#2ecc40" fill-rule="nonzero" stroke="none" stroke-width="1" stroke-linecap="butt" stroke-linejoin="miter" stroke-miterlimit="10" stroke-dasharray="" stroke-dashoffset="0" font-family="none" font-weight="none" font-size="none" text-anchor="none" style="mix-blend-mode: normal" data-fill-palette-color="tertiary"></path></g><g transform="matrix(1,0,0,1,64,151.25537733495906)"><svg viewBox="0 0 192 57.48924533008187" height="57.48924533008187" width="192"><g><svg viewBox="0 0 192 57.48924533008187" height="57.48924533008187" width="192"><g><svg viewBox="0 0 192 57.48924533008187" height="57.48924533008187" width="192"><g transform="matrix(1,0,0,1,0,34.74756269639436)"><svg viewBox="0 0 192 22.74168263368751" height="22.74168263368751" width="192"><g id="textblocktransform"><svg viewBox="0 0 192 22.74168263368751" height="22.74168263368751" width="192" id="textblock"><g><svg viewBox="0 0 192 22.74168263368751" height="22.74168263368751" width="192"><g transform="matrix(1,0,0,1,0,0)"><svg width="192" viewBox="3.049999952316284 -33.75 288.02001953125 34" height="22.74168263368751" data-palette-color="#ffffff"><path d="M24.1-6.8Q25.05-6.8 25.53-6.08 26-5.35 26-4.5L26-4.5Q26-3.45 25.68-3.03 25.35-2.6 24.45-2.15L24.45-2.15Q22.35-1.15 19.25-0.55 16.15 0.05 12.6 0.05L12.6 0.05Q8.15 0.05 6.08-1.45 4-2.95 3.53-5.08 3.05-7.2 3.05-10.65L3.05-10.65Q3.05-14.35 3.35-17.93 3.65-21.5 4.4-27.05L4.4-27.05Q4.75-29.45 6.3-30.53 7.85-31.6 9.7-31.6L9.7-31.6Q11.25-31.6 14.75-31.7L14.75-31.7 19.1-31.75Q21.8-31.75 23-31.6L23-31.6Q24.5-31.3 25.23-30.93 25.95-30.55 25.95-29.65L25.95-29.65Q25.95-28.65 25.28-27.7 24.6-26.75 23.25-26.75L23.25-26.75Q21.7-26.75 18.8-26.95L18.8-26.95Q15.9-27.15 14.45-27.15L14.45-27.15Q13.2-27.15 12-27L12-27Q10.6-26.9 10-26.65 9.4-26.4 9.3-25.8L9.3-25.8Q8.6-20.65 8.6-18.2L8.6-18.2Q9.75-18.05 10.85-18.05L10.85-18.05Q12.25-18.05 13.85-18.2 15.45-18.35 15.9-18.4L15.9-18.4Q18.55-18.65 20.45-18.65L20.45-18.65Q21.55-18.65 22.13-18.25 22.7-17.85 22.7-17.15L22.7-17.15Q22.7-16.05 22.13-15.45 21.55-14.85 20.1-14.55L20.1-14.55Q18.35-14.2 15.78-14 13.2-13.8 10.75-13.8L10.75-13.8Q9.9-13.8 8.4-13.9L8.4-13.9Q8.25-10.85 8.25-8.25L8.25-8.25Q8.25-4.7 12.95-4.7L12.95-4.7Q15.45-4.7 17.1-5.05 18.75-5.4 20.9-6.05L20.9-6.05Q22.9-6.8 24.1-6.8L24.1-6.8ZM48-16.7Q48-14.5 45.75-14.5L45.75-14.5Q45-14.5 44.5-14.85 44-15.2 43.4-15.9L43.4-15.9Q41.9-17.55 40.8-17.55L40.8-17.55Q39.35-17.55 37.97-16.7 36.6-15.85 35.75-14.3 34.9-12.75 34.9-10.85L34.9-10.85Q34.9-8.75 35.72-7.35 36.55-5.95 38.3-4.95L38.3-4.95Q38.95-4.6 39.82-4.4 40.7-4.2 41.35-4.2L41.35-4.2Q42.8-4.2 45-5.35L45-5.35Q45.8-5.75 46.35-5.95 46.9-6.15 47.5-6.15L47.5-6.15Q48.05-6.15 48.75-5.65 49.45-5.15 49.45-4.4L49.45-4.4Q49.45-2.9 48.05-1.88 46.65-0.85 44.62-0.33 42.6 0.2 40.75 0.2L40.75 0.2Q37.8 0.2 35.27-1.15 32.75-2.5 31.25-4.88 29.75-7.25 29.75-10.25L29.75-10.25Q29.75-13.45 31.2-16.1 32.65-18.75 35.1-20.25 37.55-21.75 40.45-21.75L40.45-21.75Q42.1-21.75 43.85-21.15 45.6-20.55 46.8-19.4 48-18.25 48-16.7L48-16.7ZM73.5-16.05Q73.9-15.35 74.15-14.03 74.4-12.7 74.4-11.65L74.4-11.65Q74.4-9.7 73.55-6.1L73.55-6.1Q70.09 0.2 63.34 0.2L63.34 0.2Q60.84 0.2 58.25-1.45 55.65-3.1 54.65-5.25L54.65-5.25Q53.3-9.55 53.3-10.7L53.3-10.7Q53.3-12.7 54.17-14.95 55.05-17.2 56.4-18.85L56.4-18.85Q57.25-20 59.45-20.83 61.65-21.65 63.45-21.65L63.45-21.65Q66.95-21.65 69.4-20.33 71.84-19 73.5-16.05L73.5-16.05ZM69.15-8Q69.4-8.65 69.4-11.35L69.4-11.35Q69.4-12.8 68.87-14.2 68.34-15.6 67.34-16.6L67.34-16.6Q67.25-16.7 66.8-16.93 66.34-17.15 65.57-17.38 64.8-17.6 63.8-17.6L63.8-17.6Q61-17.6 59.7-15.35 58.4-13.1 58.4-10.25L58.4-10.25Q58.4-9.75 58.67-8.35 58.95-6.95 59.15-6.6L59.15-6.6Q59.3-6.25 59.92-5.63 60.55-5 61.47-4.53 62.4-4.05 63.4-4.05L63.4-4.05Q65.65-4.05 67-5.13 68.34-6.2 69.15-8L69.15-8ZM85.34-31.7Q85.34-30.4 85.29-28.68 85.24-26.95 85.19-26.05L85.19-26.05Q85.04-23.5 85.04-20.95L85.04-20.95Q85.04-19.05 85.19-17L85.19-17Q86.74-19.25 88.54-20.3 90.34-21.35 92.89-21.35L92.89-21.35Q94.74-21.35 96.34-19.7 97.94-18.05 98.39-15.85L98.39-15.85Q98.54-13.9 98.54-11.1L98.54-11.1Q98.54-9.3 98.74-6.4L98.74-6.4Q98.84-5.3 99.32-4.35 99.79-3.4 100.69-3.4L100.69-3.4Q101.14-3.4 101.42-3.45 101.69-3.5 101.94-3.5L101.94-3.5Q102.64-3.5 102.92-3.15 103.19-2.8 103.19-2.15L103.19-2.15Q103.19-0.95 101.99-0.35 100.79 0.25 99.79 0.25L99.79 0.25Q96.19 0.25 94.84-2.75L94.84-2.75Q94.09-4.45 93.89-7.18 93.69-9.9 93.69-13.55L93.69-13.55Q93.69-17.15 91.24-17.15L91.24-17.15Q89.89-17.15 88.52-15.73 87.14-14.3 86.24-11.98 85.34-9.65 85.34-7.15L85.34-7.15 85.39-1.95Q85.39-0.85 84.54-0.33 83.69 0.2 82.94 0.2L82.94 0.2Q81.84 0.2 80.94-0.48 80.04-1.15 80.04-2L80.04-2Q80.39-5.75 80.39-14.55L80.39-14.55Q80.39-16.15 80.14-26.4L80.14-26.4 79.99-31Q79.99-32.1 80.99-32.93 81.99-33.75 83.24-33.75L83.24-33.75Q84.34-33.75 84.84-33.25 85.34-32.75 85.34-31.7L85.34-31.7ZM128.94-2.4Q128.94-1.3 127.77-0.55 126.59 0.2 125.59 0.2L125.59 0.2Q123.69 0.2 122.57-0.28 121.44-0.75 120.49-2.05L120.49-2.05Q119.19-0.9 116.94-0.33 114.69 0.25 112.79 0.25L112.79 0.25Q109.69 0.25 107.69-1.43 105.69-3.1 105.69-6.35L105.69-6.35Q105.69-7.75 106.44-8.93 107.19-10.1 108.49-11L108.49-11Q109.94-11.95 111.79-12.48 113.64-13 115.64-13L115.64-13Q116.69-13 118.14-12.6 119.59-12.2 120.39-11.75L120.39-11.75 120.39-12.55Q120.39-15.25 119.09-16.28 117.79-17.3 114.89-17.3L114.89-17.3Q114.04-17.3 113.22-16.95 112.39-16.6 111.34-16L111.34-16Q109.94-15.25 108.69-15.25L108.69-15.25Q108.24-15.25 107.84-15.88 107.44-16.5 107.44-17L107.44-17Q107.44-18.45 108.82-19.5 110.19-20.55 112.09-21.08 113.99-21.6 115.49-21.6L115.49-21.6Q116.99-21.6 118.94-21.03 120.89-20.45 122.14-19.45L122.14-19.45Q123.64-18.15 124.47-16.43 125.29-14.7 125.29-12.65L125.29-12.65Q125.29-12 125.19-10.7L125.19-10.7Q125.09-9.3 125.09-8.3L125.09-8.3Q125.09-7.85 124.99-6.95L124.99-6.95Q124.89-5.85 124.89-5.2L124.89-5.2Q124.89-4.6 125.34-4.17 125.79-3.75 126.39-3.75L126.39-3.75 127.79-3.8Q128.34-3.8 128.64-3.4 128.94-3 128.94-2.4L128.94-2.4ZM112.84-3.7Q114.99-3.7 116.44-4.15 117.89-4.6 119.94-5.8L119.94-5.8Q120.14-6.65 120.19-8.05L120.19-8.05Q117.44-9.35 115.64-9.35L115.64-9.35Q113.59-9.35 111.99-8.6 110.39-7.85 110.39-5.95L110.39-5.95Q110.39-5 111.19-4.35 111.99-3.7 112.84-3.7L112.84-3.7ZM155.04-3.85Q155.29-3.75 155.84-3.6 156.39-3.45 156.64-3.3 156.89-3.15 156.89-2.85L156.89-2.85Q156.94-1.65 156.01-0.88 155.09-0.1 153.84-0.1L153.84-0.1Q151.89-0.1 150.79-1.15 149.69-2.2 149.19-4.35L149.19-4.35Q148.99-5.2 148.99-6.7L148.99-6.7Q148.99-7.55 149.09-9.45L149.09-9.45Q149.19-11.45 149.19-12.65L149.19-12.65Q149.19-14.4 148.21-15.73 147.24-17.05 145.49-17.05L145.49-17.05Q144.44-17.05 143.29-16.43 142.14-15.8 141.69-14.9L141.69-14.9Q140.94-13.45 140.64-11.75L140.64-11.75Q140.09-8.75 140.09-5.5L140.09-5.5Q140.09-3.95 140.14-3.1L140.14-3.1Q140.14-2.9 140.16-2.33 140.19-1.75 140.06-1.28 139.94-0.8 139.64-0.4L139.64-0.4Q139.39-0.15 138.86 0.03 138.34 0.2 137.89 0.2L137.89 0.2Q137.19 0.2 136.14-0.4 135.09-1 134.94-1.75L134.94-1.75 134.89-2.6Q134.89-3.05 134.99-3.65L134.99-3.65Q135.59-7.15 135.59-9.75L135.59-9.75Q135.59-10.9 135.54-11.55L135.54-11.55 135.49-13.9Q135.49-15.1 134.89-16.23 134.29-17.35 133.49-17.35L133.49-17.35Q133.24-17.35 132.79-17.18 132.34-17 132.04-17L132.04-17Q131.54-17 130.96-17.5 130.39-18 130.39-18.55L130.39-18.55Q130.39-19.6 131.09-20.25L131.09-20.25Q131.84-20.85 132.56-21.2 133.29-21.55 134.24-21.55L134.24-21.55Q135.04-21.55 135.54-21.4 136.04-21.25 136.89-20.75L136.89-20.75Q137.34-20.5 137.94-19.65 138.54-18.8 138.94-17.25L138.94-17.25Q140.24-19.65 142.16-20.63 144.09-21.6 147.09-21.6L147.09-21.6Q148.24-21.6 149.56-20.85 150.89-20.1 151.84-19.1L151.84-19.1Q152.74-18 153.34-16.38 153.94-14.75 153.94-13.45L153.94-13.45Q153.94-12.7 153.84-11L153.84-11Q153.69-9.65 153.69-8.15L153.69-8.15Q153.69-4.65 155.04-3.85L155.04-3.85ZM180.44-31.3Q180.44-30.8 180.19-28.55L180.19-28.55Q179.64-23.05 179.64-17.4L179.64-17.4Q179.64-12.45 179.79-9.85 179.94-7.25 180.54-5.88 181.14-4.5 182.39-4.5L182.39-4.5Q184.79-4.5 184.79-2.9L184.79-2.9Q184.79-1.85 183.74-1.13 182.69-0.4 181.44-0.4L181.44-0.4Q179.94-0.4 178.64-1.1 177.34-1.8 176.59-3.25L176.59-3.25Q175.54-1.7 173.56-0.78 171.59 0.15 169.74 0.15L169.74 0.15Q166.89 0.15 164.69-1.05 162.49-2.25 161.29-4.33 160.09-6.4 160.09-8.9L160.09-8.9Q160.09-11.3 160.66-13.53 161.24-15.75 162.24-17.2L162.24-17.2Q163.59-19.1 165.86-20.23 168.14-21.35 170.34-21.35L170.34-21.35Q171.69-21.35 172.89-20.83 174.09-20.3 174.99-19.55L174.99-19.55Q174.99-22.9 174.94-23.75L174.94-23.75 174.94-24.8Q174.94-29.45 175.54-31.6L175.54-31.6Q176.09-33.7 178.19-33.7L178.19-33.7Q179.34-33.7 179.89-33.2 180.44-32.7 180.44-31.3L180.44-31.3ZM165.04-9Q165.04-6.7 166.36-5.3 167.69-3.9 169.54-3.9L169.54-3.9Q172.19-3.9 173.46-5.55 174.74-7.2 174.74-9.8L174.74-9.8 174.69-14.75Q172.74-16.9 170.64-16.9L170.64-16.9Q169.19-16.9 167.91-16.18 166.64-15.45 165.89-14L165.89-14Q165.04-12.35 165.04-9L165.04-9ZM205.83-16.7Q205.83-14.5 203.58-14.5L203.58-14.5Q202.83-14.5 202.33-14.85 201.83-15.2 201.23-15.9L201.23-15.9Q199.73-17.55 198.63-17.55L198.63-17.55Q197.18-17.55 195.81-16.7 194.43-15.85 193.58-14.3 192.73-12.75 192.73-10.85L192.73-10.85Q192.73-8.75 193.56-7.35 194.38-5.95 196.13-4.95L196.13-4.95Q196.78-4.6 197.66-4.4 198.53-4.2 199.18-4.2L199.18-4.2Q200.63-4.2 202.83-5.35L202.83-5.35Q203.63-5.75 204.18-5.95 204.73-6.15 205.33-6.15L205.33-6.15Q205.88-6.15 206.58-5.65 207.28-5.15 207.28-4.4L207.28-4.4Q207.28-2.9 205.88-1.88 204.48-0.85 202.46-0.33 200.43 0.2 198.58 0.2L198.58 0.2Q195.63 0.2 193.11-1.15 190.58-2.5 189.08-4.88 187.58-7.25 187.58-10.25L187.58-10.25Q187.58-13.45 189.03-16.1 190.48-18.75 192.93-20.25 195.38-21.75 198.28-21.75L198.28-21.75Q199.93-21.75 201.68-21.15 203.43-20.55 204.63-19.4 205.83-18.25 205.83-16.7L205.83-16.7ZM218.93-2Q218.93-1.15 218.28-0.5 217.63 0.15 216.68 0.15L216.68 0.15Q215.18 0.15 214.48-0.43 213.78-1 213.78-2.55L213.78-2.55Q213.78-4.4 213.68-7.4L213.68-7.4Q213.58-9.9 213.58-11.6L213.58-11.6Q213.58-12.4 213.68-13.7L213.68-13.7Q213.78-14.9 213.78-15.5L213.78-15.5Q213.63-16.45 213.03-17.07 212.43-17.7 211.48-17.7L211.48-17.7Q211.03-17.7 210.73-18.13 210.43-18.55 210.43-19L210.43-19Q210.43-20.15 211.36-20.75 212.28-21.35 213.58-21.35L213.58-21.35Q216.28-21.35 217.33-18.15L217.33-18.15Q218.63-19.65 220.31-20.58 221.98-21.5 223.53-21.5L223.53-21.5Q225.38-21.5 226.91-20.5 228.43-19.5 228.43-17.8L228.43-17.8Q228.43-16.85 227.61-15.85 226.78-14.85 225.93-14.85L225.93-14.85Q225.48-14.85 225.16-15.08 224.83-15.3 224.38-15.75L224.38-15.75Q223.88-16.25 223.53-16.48 223.18-16.7 222.73-16.7L222.73-16.7Q221.93-16.7 221.23-16.45 220.53-16.2 220.28-15.85L220.28-15.85Q219.48-14.6 219.11-13.6 218.73-12.6 218.73-11.45L218.73-11.45Q218.73-10.6 218.68-10.1L218.68-10.1 218.63-7.25Q218.63-6.6 218.68-5.8 218.73-5 218.78-4.6L218.78-4.6Q218.93-3.25 218.93-2L218.93-2ZM254.13-2.4Q254.13-1.3 252.95-0.55 251.78 0.2 250.78 0.2L250.78 0.2Q248.88 0.2 247.75-0.28 246.63-0.75 245.68-2.05L245.68-2.05Q244.38-0.9 242.13-0.33 239.88 0.25 237.98 0.25L237.98 0.25Q234.88 0.25 232.88-1.43 230.88-3.1 230.88-6.35L230.88-6.35Q230.88-7.75 231.63-8.93 232.38-10.1 233.68-11L233.68-11Q235.13-11.95 236.98-12.48 238.83-13 240.83-13L240.83-13Q241.88-13 243.33-12.6 244.78-12.2 245.58-11.75L245.58-11.75 245.58-12.55Q245.58-15.25 244.28-16.28 242.98-17.3 240.08-17.3L240.08-17.3Q239.23-17.3 238.4-16.95 237.58-16.6 236.53-16L236.53-16Q235.13-15.25 233.88-15.25L233.88-15.25Q233.43-15.25 233.03-15.88 232.63-16.5 232.63-17L232.63-17Q232.63-18.45 234-19.5 235.38-20.55 237.28-21.08 239.18-21.6 240.68-21.6L240.68-21.6Q242.18-21.6 244.13-21.03 246.08-20.45 247.33-19.45L247.33-19.45Q248.83-18.15 249.65-16.43 250.48-14.7 250.48-12.65L250.48-12.65Q250.48-12 250.38-10.7L250.38-10.7Q250.28-9.3 250.28-8.3L250.28-8.3Q250.28-7.85 250.18-6.95L250.18-6.95Q250.08-5.85 250.08-5.2L250.08-5.2Q250.08-4.6 250.53-4.17 250.98-3.75 251.58-3.75L251.58-3.75 252.98-3.8Q253.53-3.8 253.83-3.4 254.13-3 254.13-2.4L254.13-2.4ZM238.03-3.7Q240.18-3.7 241.63-4.15 243.08-4.6 245.13-5.8L245.13-5.8Q245.33-6.65 245.38-8.05L245.38-8.05Q242.63-9.35 240.83-9.35L240.83-9.35Q238.78-9.35 237.18-8.6 235.58-7.85 235.58-5.95L235.58-5.95Q235.58-5 236.38-4.35 237.18-3.7 238.03-3.7L238.03-3.7ZM272.08-26.05Q271.38-26.05 270.73-26.4 270.08-26.75 269.83-27.45L269.83-27.45Q269.33-28.8 268.75-29.38 268.18-29.95 267.38-29.95L267.38-29.95Q266.88-29.95 266.45-29.2 266.03-28.45 265.83-26.85L265.83-26.85Q265.48-23.55 265.48-21.8L265.48-21.8Q266.23-21.65 267.58-21.65L267.58-21.65Q268.28-21.65 269.38-21.75L269.38-21.75 270.73-21.8Q271.63-21.8 272.13-21.45 272.63-21.1 272.63-20.3L272.63-20.3Q272.63-19.15 271.93-18.4 271.23-17.65 270.28-17.65L270.28-17.65Q266.68-17.65 265.43-17.3L265.43-17.3Q265.43-14.3 265.73-8.7L265.73-8.7Q265.73-7.85 265.83-6.25L265.83-6.25 266.03-2.4Q266.13-0.95 265.75-0.38 265.38 0.2 264.18 0.2L264.18 0.2Q261.98 0.2 261.33-2.45L261.33-2.45Q260.93-4.35 260.7-7.88 260.48-11.4 260.48-14.1L260.48-14.1Q260.48-15.5 260.63-17.35L260.63-17.35Q260.53-17.4 260.08-17.4L260.08-17.4Q259.63-17.4 259.43-17.35L259.43-17.35Q257.93-17.25 257.23-17.25L257.23-17.25Q256.78-17.25 256.33-17.9 255.88-18.55 255.88-19.4L255.88-19.4Q255.88-19.9 256.23-20.33 256.58-20.75 257.08-20.95L257.08-20.95Q257.83-21.35 259.23-21.35L259.23-21.35 260.73-21.35Q260.73-28.35 262.28-31.1L262.28-31.1Q263.78-33.7 267.23-33.7L267.23-33.7Q268.83-33.7 270.3-33.05 271.78-32.4 272.7-31.25 273.63-30.1 273.63-28.65L273.63-28.65Q273.63-27.1 273.23-26.58 272.83-26.05 272.08-26.05L272.08-26.05ZM278.77-17.1L276.37-17.3Q275.67-17.4 275.25-17.9 274.82-18.4 274.82-19.1L274.82-19.1Q274.82-19.45 275-19.85 275.17-20.25 275.52-20.55L275.52-20.55Q276.17-21.2 279.02-21.2L279.02-21.2Q279.42-23.15 279.42-25.15L279.42-25.15Q279.42-25.9 279.37-26.45 279.32-27 279.32-27.3L279.32-27.3Q279.32-28.4 280.15-28.95 280.97-29.5 282.02-29.5L282.02-29.5Q283.32-29.5 283.8-28.85 284.27-28.2 284.27-26.45L284.27-26.45Q284.27-23.85 283.82-21.35L283.82-21.35Q284.62-21.35 286.02-21.45L286.02-21.45Q287.92-21.55 288.77-21.55L288.77-21.55Q289.62-21.55 290.25-21.13 290.87-20.7 290.87-19.95L290.87-19.95Q290.87-18 289.12-17.65L289.12-17.65Q287.27-17.2 283.37-17.1L283.37-17.1Q283.22-15.15 283.22-12.85L283.22-12.85Q283.22-9.25 283.67-6.95L283.67-6.95Q283.97-5.35 284.7-4.63 285.42-3.9 286.87-3.9L286.87-3.9Q287.72-3.9 288.62-4.35L288.62-4.35Q289.22-4.7 289.72-4.7L289.72-4.7Q290.42-4.7 290.75-4.25 291.07-3.8 291.07-3.05L291.07-3.05Q291.07-1.65 289.57-0.73 288.07 0.2 285.72 0.2L285.72 0.2Q284.27 0.2 282.8-0.5 281.32-1.2 280.32-2.25L280.32-2.25Q280.17-2.4 279.77-3.4 279.37-4.4 279.07-5.55L279.07-5.55Q278.57-7.9 278.57-12.15L278.57-12.15Q278.57-14 278.77-17.1L278.77-17.1Z" opacity="1" transform="matrix(1,0,0,1,0,0)" fill="#ffffff" class="wordmark-text-0" data-fill-palette-color="quaternary" id="text-0"></path></svg></g></svg></g></svg></g></svg></g><g transform="matrix(1,0,0,1,58.89899170479995,0)"><svg viewBox="0 0 74.2020165904001 31.429005399756143" height="31.429005399756143" width="74.2020165904001"><g><svg version="1.0" xmlns="http://www.w3.org/2000/svg" xmlns:xlink="http://www.w3.org/1999/xlink" x="0" y="0" viewBox="0 0 100 42.35599899291992" enable-background="new 0 0 100 42.355" xml:space="preserve" width="74.2020165904001" height="31.429005399756143" class="icon-icon-0" data-fill-palette-color="quaternary" id="icon-0"><polygon points="88.313,23.372 88.313,23.372 88.313,23.372 " fill="#ffffff" data-fill-palette-color="quaternary"></polygon><path d="M88.313 0H64.75c0.209 0.394 0.415 0.776 0.619 1.149H40.325c-25.689 0-33.523 2.858-35.018 3.535C2.249 5.548 0 8.356 0 11.686c0 3.148 2.012 5.828 4.813 6.842 1.353 1.176 8.133 6.187 32.355 13.68l32.805 10.148 5.536-0.393-4.347-3.45L38.357 28.364c-15.004-4.642-23.085-8.309-27.188-10.535 2.034-1.293 3.39-3.561 3.39-6.144 0-1.823-0.68-3.489-1.792-4.768 4.909-0.846 13.448-1.745 27.558-1.746l27.455 0.001c5.162 7.788 9.656 8.907 17.469 8.907l2.702-8.121c0.12-0.008 0.24-0.021 0.363-0.021 3.175 0 5.747 2.573 5.747 5.748 0 3.174-2.572 5.748-5.747 5.748h-2.396H74.161c-9.626 0-9.411 5.171-9.411 5.938h23.563l0 0c6.454 0 11.687-5.231 11.687-11.687C100 5.232 94.768 0 88.313 0zM7.279 8.43c1.796 0 3.257 1.46 3.257 3.256 0 1.797-1.461 3.258-3.257 3.258s-3.257-1.461-3.256-3.258C4.022 9.891 5.483 8.43 7.279 8.43z" fill="#ffffff" data-fill-palette-color="quaternary"></path></svg></g></svg></g><g></g></svg></g></svg></g></svg></g></svg></g><defs></defs></svg><rect width="320" height="360" fill="none" stroke="none" visibility="hidden"></rect></g></svg>